<svg width="16" height="19" viewBox="0 0 16 19" fill="none" xmlns="http://www.w3.org/2000/svg">
<path fill-rule="evenodd" clip-rule="evenodd" d="M6.77745 0.25C5.59178 0.25 4.53961 1.00994 4.16687 2.13549L3.90242 2.93408H3.05179C1.17459 2.93408 0.100274 5.0743 1.22186 6.57959C1.67281 7.18481 1.91639 7.9194 1.91639 8.67415V13.9999C1.91639 16.6232 4.04304 18.7499 6.6664 18.7499H9.33306C11.9564 18.7499 14.0831 16.6232 14.0831 13.9999V8.67415C14.0831 7.9194 14.3266 7.18481 14.7776 6.57959C15.8992 5.0743 14.8249 2.93408 12.9477 2.93408H12.0968L11.8324 2.13549C11.4596 1.00993 10.4074 0.25 9.22178 0.25H6.77745ZM11.5328 4.43408C11.5476 4.43452 11.5624 4.43453 11.5773 4.43408H12.9477C13.591 4.43408 13.9591 5.16752 13.5748 5.68337C12.9309 6.54755 12.5831 7.59646 12.5831 8.67415V13.9999C12.5831 15.7948 11.128 17.2499 9.33306 17.2499H6.6664C4.87147 17.2499 3.41639 15.7948 3.41639 13.9999V8.67415C3.41639 7.59646 3.06859 6.54755 2.42469 5.68337C2.04033 5.16752 2.40849 4.43408 3.05179 4.43408H4.42197C4.43682 4.43453 4.45164 4.43452 4.46639 4.43408H11.5328ZM10.5167 2.93408L10.4084 2.60704C10.239 2.09543 9.76072 1.75 9.22178 1.75H6.77745C6.23851 1.75 5.76025 2.09543 5.59083 2.60704L5.48252 2.93408H10.5167ZM10.5271 8.1582C10.5271 7.74399 10.1913 7.4082 9.77707 7.4082C9.36286 7.4082 9.02707 7.74399 9.02707 8.1582V13.5266C9.02707 13.9408 9.36285 14.2766 9.77707 14.2766C10.1913 14.2766 10.5271 13.9408 10.5271 13.5266V8.1582ZM6.22238 7.4082C6.6366 7.4082 6.97238 7.74399 6.97238 8.1582V13.5266C6.97238 13.9408 6.6366 14.2766 6.22238 14.2766C5.80817 14.2766 5.47238 13.9408 5.47238 13.5266V8.1582C5.47238 7.74399 5.80817 7.4082 6.22238 7.4082Z" fill="#E11D48"/>
</svg>
