<svg width="20" height="20" viewBox="0 0 20 20" fill="none" xmlns="http://www.w3.org/2000/svg">
<path d="M5.5 1H4.60022C3.3401 1 2.70957 1 2.22827 1.24524C1.80491 1.46095 1.46095 1.80491 1.24524 2.22827C1 2.70957 1 3.3401 1 4.60022V15.4002C1 16.6603 1 17.2901 1.24524 17.7714C1.46095 18.1947 1.80491 18.5393 2.22827 18.755C2.7091 19 3.33887 19 4.59652 19H5.5M5.5 1H15.4002C16.6603 1 17.2895 1 17.7708 1.24524C18.1942 1.46095 18.5393 1.80491 18.755 2.22827C19 2.7091 19 3.33887 19 4.59652V15.404C19 16.6617 19 17.2905 18.755 17.7714C18.5393 18.1947 18.1942 18.5393 17.7708 18.755C17.29 19 16.6611 19 15.4035 19H5.5M5.5 1V19M10 8.875H14.5M10 5.5H14.5" stroke="#3B424A" stroke-width="1.5" stroke-linecap="round" stroke-linejoin="round"/>
</svg>
