<svg width="18" height="19" viewBox="0 0 18 19" fill="none" xmlns="http://www.w3.org/2000/svg">
<path d="M9.21258 5.09541L1 13.308V17.4143L5.10629 17.4143L13.3189 9.20168M9.21258 5.09541L12.1574 2.15053L12.1592 2.14878C12.5646 1.7434 12.7676 1.54036 13.0017 1.46431C13.2079 1.39731 13.43 1.39731 13.6362 1.46431C13.8701 1.5403 14.0729 1.74312 14.4777 2.14792L16.2637 3.93395C16.6702 4.34049 16.8736 4.54385 16.9498 4.77825C17.0168 4.98443 17.0167 5.20652 16.9497 5.4127C16.8736 5.64693 16.6706 5.84999 16.2646 6.25594L16.2637 6.25682L13.3189 9.20168M9.21258 5.09541L13.3189 9.20168" stroke="#4D515A" stroke-width="1.5" stroke-linecap="round" stroke-linejoin="round"/>
</svg>
