<svg width="20" height="18" viewBox="0 0 20 18" fill="none" xmlns="http://www.w3.org/2000/svg">
<path d="M19 16.4999C19 14.7583 17.3304 13.2767 15 12.7275M13 16.5C13 14.2909 10.3137 12.5 7 12.5C3.68629 12.5 1 14.2909 1 16.5M13 9.5C15.2091 9.5 17 7.70914 17 5.5C17 3.29086 15.2091 1.5 13 1.5M7 9.5C4.79086 9.5 3 7.70914 3 5.5C3 3.29086 4.79086 1.5 7 1.5C9.20914 1.5 11 3.29086 11 5.5C11 7.70914 9.20914 9.5 7 9.5Z" stroke="#7364FF" stroke-width="1.5" stroke-linecap="round" stroke-linejoin="round"/>
</svg>
