<svg width="21" height="21" viewBox="0 0 21 21" fill="none" xmlns="http://www.w3.org/2000/svg">
<path fill-rule="evenodd" clip-rule="evenodd" d="M2 8.01761C2 4.69417 4.69417 2 8.01761 2C11.341 2 14.0352 4.69417 14.0352 8.01761C14.0352 11.341 11.341 14.0352 8.01761 14.0352C4.69417 14.0352 2 11.341 2 8.01761ZM8.01761 0C3.5896 0 0 3.5896 0 8.01761C0 12.4456 3.5896 16.0352 8.01761 16.0352C9.87118 16.0352 11.5778 15.4062 12.9358 14.35L18.3383 19.7525C18.7288 20.143 19.3619 20.143 19.7525 19.7525C20.143 19.3619 20.143 18.7288 19.7525 18.3383L14.35 12.9358C15.4062 11.5778 16.0352 9.87118 16.0352 8.01761C16.0352 3.5896 12.4456 0 8.01761 0Z" fill="#64748B"/>
</svg>
